<mxfile host="drawio-plugin" agent="Mozilla/5.0 (Windows NT 10.0; Win64; x64) AppleWebKit/537.36 (KHTML, like Gecko) Chrome/122.0.0.0 Safari/537.36" modified="2024-07-26T14:59:19.978Z" etag="g2T3My9xDqe6Npvtninw" version="22.1.22" type="embed">
  <diagram name="Flow" id="nE2qOdOcSx8qNVzde0AS">
    <mxGraphModel dx="1030" dy="752" grid="1" gridSize="10" guides="1" tooltips="1" connect="1" arrows="1" fold="1" page="1" pageScale="1" pageWidth="827" pageHeight="1169" math="0" shadow="0">
      <root>
        <mxCell id="0" />
        <mxCell id="1" parent="0" />
        <mxCell id="gXaxVtoaIGc4Zsm0qNW_-1" value="" style="whiteSpace=wrap;html=1;aspect=fixed;textShadow=0;labelBorderColor=none;gradientColor=none;rounded=0;" parent="1" vertex="1">
          <mxGeometry x="60" y="30" width="930" height="930" as="geometry" />
        </mxCell>
      </root>
    </mxGraphModel>
  </diagram>
</mxfile>
